# xmcd
#
# Track frame offsets:
# 150
# 21948
# 37483
# 55068
# 73887
#
# Disc length: 1170 seconds
#
#
# Revision: 0
# Processed by: cddbd v1.5.2PL0 Copyright (c) Steve Scherf et al.
# Submitted via: FreeRIP 2.92 
#
DISCID=49049005
DTITLE=Andy Grant - Bessie EP
DYEAR=1900
DGENRE=Acoustic
TTITLE0=Bessie
TTITLE1=Heaven Knows
TTITLE2=Hole in the Sky
TTITLE3=Indifference
TTITLE4=Elements
EXTD=
EXTT0=
EXTT1=
EXTT2=
EXTT3=
EXTT4=
PLAYORDER=
